# xmcd
#
# Track frame offsets: 
#        150
#        15137
#        37216
#        52466
#        71254
#        86141
#        104801
#        123109
#        138451
#        160017
#
# Disc length: 2374 seconds
#
# Revision: 0
# Processed by: cddbd v1.5.2PL0 Copyright (c) Steve Scherf et al.
# Submitted via: ExactAudioCopy v1.2
#
DISCID=8809440a
DTITLE=Sweet Pea Atkinson - Get What You Deserve
DYEAR=2017
DGENRE=Blues
TTITLE0=Are You Lonely for Me Baby
TTITLE1=Slow Down
TTITLE2=Am I Grooving You
TTITLE3=Ain't No Love in the Heart of the City
TTITLE4=You Can Have Watergate
TTITLE5=You're Welcome, Stop On By
TTITLE6=Just Lookin'
TTITLE7=Just Another Lonely Night
TTITLE8=Last Two Dollars
TTITLE9=Get What You Deserve
EXTD=
EXTT0=
EXTT1=
EXTT2=
EXTT3=
EXTT4=
EXTT5=
EXTT6=
EXTT7=
EXTT8=
EXTT9=
PLAYORDER=
